<svg id="Capa_1" xmlns="http://www.w3.org/2000/svg" viewBox="0 0 525.153 525.153"><style>.path{fill:#b0afb7}</style><path class="path" d="M96.781 290.234c-15.229 0-27.658 12.407-27.658 27.658 0 15.12 12.407 27.658 27.658 27.658 15.12 0 27.658-12.516 27.658-27.658 0-15.251-12.538-27.658-27.658-27.658zm0 110.479c-15.229 0-27.658 12.516-27.658 27.658 0 15.229 12.407 27.658 27.658 27.658 15.12 0 27.658-12.407 27.658-27.658 0-15.12-12.538-27.658-27.658-27.658zm0-221.089c-15.229 0-27.658 12.516-27.658 27.658 0 15.229 12.407 27.658 27.658 27.658 15.12 0 27.658-12.407 27.658-27.658 0-15.142-12.538-27.658-27.658-27.658zm-82.952 13.829C6.105 193.453 0 199.558 0 207.282s6.105 13.829 13.829 13.829 13.829-6.105 13.829-13.829-6.127-13.829-13.829-13.829zm82.952-124.33c-15.229 0-27.658 12.407-27.658 27.658 0 15.12 12.407 27.658 27.658 27.658 15.12 0 27.658-12.516 27.658-27.658 0-15.229-12.538-27.658-27.658-27.658zm414.543 151.966c7.724 0 13.829-6.105 13.829-13.829s-6.105-13.829-13.829-13.829-13.829 6.105-13.829 13.829 6.126 13.829 13.829 13.829zm-193.454-96.65c15.12 0 27.658-12.516 27.658-27.658 0-15.229-12.516-27.658-27.658-27.658-15.229 0-27.658 12.407-27.658 27.658.022 15.12 12.429 27.658 27.658 27.658zm0-96.781c7.724 0 13.829-6.105 13.829-13.829S325.595 0 317.87 0c-7.724 0-13.829 6.105-13.829 13.829s6.127 13.829 13.829 13.829zM13.829 304.063C6.105 304.063 0 310.168 0 317.87s6.105 13.829 13.829 13.829 13.829-6.105 13.829-13.829-6.127-13.807-13.829-13.807zm193.453 193.432c-7.724 0-13.829 6.105-13.829 13.829s6.105 13.829 13.829 13.829 13.829-6.105 13.829-13.829c0-7.725-6.127-13.829-13.829-13.829zm0-469.837c7.724 0 13.829-6.105 13.829-13.829S214.984 0 207.282 0s-13.829 6.105-13.829 13.829 6.105 13.829 13.829 13.829zm0 96.781c15.229 0 27.658-12.516 27.658-27.658 0-15.229-12.407-27.658-27.658-27.658-15.12 0-27.658 12.407-27.658 27.658 0 15.12 12.516 27.658 27.658 27.658zm0 151.966c-22.975 0-41.487 18.512-41.487 41.487s18.512 41.487 41.487 41.487 41.487-18.512 41.487-41.487-18.533-41.487-41.487-41.487zm221.089 13.829c-15.12 0-27.658 12.407-27.658 27.658 0 15.12 12.516 27.658 27.658 27.658 15.229 0 27.658-12.516 27.658-27.658 0-15.251-12.428-27.658-27.658-27.658zm0 110.479c-15.12 0-27.658 12.516-27.658 27.658 0 15.229 12.516 27.658 27.658 27.658 15.229 0 27.658-12.407 27.658-27.658 0-15.12-12.428-27.658-27.658-27.658zm0-221.089c-15.12 0-27.658 12.516-27.658 27.658 0 15.229 12.516 27.658 27.658 27.658 15.229 0 27.658-12.407 27.658-27.658 0-15.142-12.428-27.658-27.658-27.658zm0-110.501c-15.12 0-27.658 12.407-27.658 27.658 0 15.12 12.516 27.658 27.658 27.658 15.229 0 27.658-12.516 27.658-27.658 0-15.229-12.428-27.658-27.658-27.658zm82.953 234.94c-7.724 0-13.829 6.105-13.829 13.829s6.105 13.829 13.829 13.829 13.829-6.127 13.829-13.851c0-7.724-6.105-13.807-13.829-13.807zm-193.454 96.65c-15.229 0-27.658 12.516-27.658 27.658 0 15.229 12.407 27.658 27.658 27.658 15.12 0 27.658-12.407 27.658-27.658.001-15.12-12.516-27.658-27.658-27.658zm0 96.782c-7.724 0-13.829 6.105-13.829 13.829s6.127 13.829 13.829 13.829 13.829-6.105 13.829-13.829c0-7.725-6.104-13.829-13.829-13.829zm-110.588-331.7c-22.975 0-41.487 18.512-41.487 41.487s18.512 41.487 41.487 41.487 41.487-18.512 41.487-41.487-18.533-41.487-41.487-41.487zm0 234.918c-15.12 0-27.658 12.516-27.658 27.658 0 15.229 12.516 27.658 27.658 27.658 15.229 0 27.658-12.407 27.658-27.658-.022-15.12-12.429-27.658-27.658-27.658zM317.87 276.405c-22.975 0-41.487 18.512-41.487 41.487s18.512 41.487 41.487 41.487 41.487-18.512 41.487-41.487-18.511-41.487-41.487-41.487zm0-110.61c-22.975 0-41.487 18.512-41.487 41.487s18.512 41.487 41.487 41.487 41.487-18.512 41.487-41.487-18.511-41.487-41.487-41.487z"/></svg>