<svg xmlns="http://www.w3.org/2000/svg" viewBox="0 0 396.821 396.821"><path d="M394.583 8.054a7.5 7.5 0 0 0-6.522-6.523c-30.748-3.803-62.477-.488-91.767 9.583-29.293 10.072-56.355 26.973-78.258 48.876l-49.983 49.983-72.149 9.305a7.504 7.504 0 0 0-4.345 2.135l-69.563 69.563a7.498 7.498 0 0 0-1.858 7.528 7.498 7.498 0 0 0 5.796 5.15l52.597 9.742 10.335 10.335-22.003 11.915a7.5 7.5 0 0 0-1.733 11.898l83.438 83.438a7.5 7.5 0 0 0 11.899-1.732l11.916-22.003 10.335 10.335 9.742 52.597a7.5 7.5 0 0 0 12.679 3.937l69.563-69.563a7.5 7.5 0 0 0 2.135-4.344l9.306-72.15 49.983-49.984c21.903-21.903 38.804-48.964 48.876-78.257 10.07-29.29 13.383-61.023 9.581-91.764zM79.674 198.355l-36.989-6.851 57.673-57.675 50.332-6.491-71.016 71.017zm72.391 114.913L82.846 244.05l17.085-9.252 61.385 61.386-9.251 17.084zm110.22-17.512l-57.674 57.674-6.852-36.988 71.017-71.017-6.491 50.331zm63.232-128.285l-135.85 135.85-96.874-96.874 135.85-135.851c19.738-19.739 44.002-35.076 70.287-44.49 3.395 17.492 11.948 33.719 24.654 46.424 12.705 12.706 28.931 21.259 46.424 24.655-9.415 26.283-24.753 50.547-44.491 70.286zm49.006-84.697a74.923 74.923 0 0 1-40.333-20.85 74.913 74.913 0 0 1-20.85-40.333c21.741-5.859 44.579-7.857 66.99-5.807 2.051 22.411.052 45.249-5.807 66.99z"/><path d="M221.325 110.443c-17.74 17.741-17.74 46.606 0 64.347 8.871 8.871 20.521 13.305 32.174 13.305 11.649 0 23.304-4.436 32.173-13.305h.001c17.74-17.74 17.74-46.606-.001-64.347-17.741-17.74-46.607-17.739-64.347 0zm53.741 53.74c-11.894 11.893-31.244 11.891-43.134 0-11.893-11.892-11.893-31.242 0-43.134 5.945-5.946 13.756-8.918 21.566-8.918 7.811 0 15.621 2.973 21.566 8.918 11.893 11.892 11.893 31.242.002 43.134zM98.365 299.165a7.5 7.5 0 0 0-10.607 0L23.41 363.512a7.5 7.5 0 0 0 5.304 12.803 7.478 7.478 0 0 0 5.304-2.197l64.347-64.347a7.501 7.501 0 0 0 0-10.606zm9.898 20.506l-28.991 28.991a7.5 7.5 0 0 0 5.304 12.803 7.478 7.478 0 0 0 5.304-2.197l28.991-28.991a7.5 7.5 0 0 0 0-10.606 7.502 7.502 0 0 0-10.608 0zm-39.14 42.248c-3.138 0-6.002 2.024-7.062 4.973-1.078 2.998-.075 6.441 2.416 8.416 2.547 2.02 6.266 2.13 8.928.265 2.84-1.99 3.992-5.81 2.639-9.024-1.113-2.775-3.945-4.63-6.921-4.63z"/><path d="M76.044 366.549c.19.451-.18-.45 0 0zM47.91 380.025l-3.992 3.992a7.5 7.5 0 0 0 5.303 12.804 7.477 7.477 0 0 0 5.303-2.196l3.992-3.992a7.498 7.498 0 0 0 .001-10.606c-2.929-2.928-7.679-2.931-10.607-.002zm-5.408-66.011a7.5 7.5 0 0 0-10.607 0L2.904 343.005a7.5 7.5 0 0 0 5.304 12.803 7.478 7.478 0 0 0 5.304-2.197l28.991-28.991a7.5 7.5 0 0 0-.001-10.606zm11.97-2.878c3.043-.765 5.327-3.417 5.644-6.537.311-3.055-1.369-6.049-4.096-7.427-2.895-1.464-6.523-.853-8.769 1.494-2.405 2.513-2.752 6.426-.852 9.335-.06-.09-.106-.156.015.029.126.185.083.118.023.029 1.767 2.567 4.992 3.842 8.035 3.077zm19.395-17.879l3.991-3.992a7.498 7.498 0 0 0-.001-10.606c-2.932-2.93-7.681-2.929-10.606.001l-3.991 3.992a7.498 7.498 0 0 0 5.304 12.802 7.474 7.474 0 0 0 5.303-2.197z"/></svg>