<svg xmlns="http://www.w3.org/2000/svg" viewBox="0 0 60 60"><path d="M40.209 16.5h11.933c.447 1.72 2 3 3.858 3 2.206 0 4-1.794 4-4s-1.794-4-4-4c-1.858 0-3.411 1.28-3.858 3H34v-3h-8v3H7.858c-.447-1.72-2-3-3.858-3-2.206 0-4 1.794-4 4s1.794 4 4 4c1.858 0 3.411-1.28 3.858-3h11.933c-9.638 3.925-16.373 13.213-16.767 24H0v8h8v-8H5.045C5.517 28.615 14.28 18.703 26 16.824V19.5h8v-2.676c11.72 1.879 20.483 11.79 20.955 23.676H52v8h8v-8h-3.023c-.395-10.787-7.13-20.075-16.768-24zM6 46.5H2v-4h4v4zm50-33c1.103 0 2 .897 2 2s-.897 2-2 2-2-.897-2-2 .897-2 2-2zm-52 4c-1.103 0-2-.897-2-2s.897-2 2-2 2 .897 2 2-.897 2-2 2zm28 0h-4v-4h4v4zm26 29h-4v-4h4v4z"/></svg>