<?xml version="1.0" encoding="iso-8859-1"?>
<!-- Generator: Adobe Illustrator 18.0.0, SVG Export Plug-In . SVG Version: 6.00 Build 0)  -->
<!DOCTYPE svg PUBLIC "-//W3C//DTD SVG 1.1//EN" "http://www.w3.org/Graphics/SVG/1.1/DTD/svg11.dtd">
<svg version="1.1" id="Capa_1" xmlns="http://www.w3.org/2000/svg" xmlns:xlink="http://www.w3.org/1999/xlink" x="0px" y="0px"
	 viewBox="0 0 60 60" style="enable-background:new 0 0 60 60;" xml:space="preserve">
<path d="M40.209,16.5h11.933c0.447,1.72,2,3,3.858,3c2.206,0,4-1.794,4-4s-1.794-4-4-4c-1.858,0-3.411,1.28-3.858,3H34v-3h-8v3
	H7.858c-0.447-1.72-2-3-3.858-3c-2.206,0-4,1.794-4,4s1.794,4,4,4c1.858,0,3.411-1.28,3.858-3h11.933
	c-9.638,3.925-16.373,13.213-16.767,24H0v8h8v-8H5.045C5.517,28.615,14.28,18.703,26,16.824V19.5h8v-2.676
	c11.72,1.879,20.483,11.79,20.955,23.676H52v8h8v-8h-3.023C56.582,29.713,49.847,20.425,40.209,16.5z M6,46.5H2v-4h4V46.5z M56,13.5
	c1.103,0,2,0.897,2,2s-0.897,2-2,2s-2-0.897-2-2S54.897,13.5,56,13.5z M4,17.5c-1.103,0-2-0.897-2-2s0.897-2,2-2s2,0.897,2,2
	S5.103,17.5,4,17.5z M32,17.5h-4v-2.944V13.5h4v1.056V17.5z M58,46.5h-4v-4h4V46.5z"/>
<g>
</g>
<g>
</g>
<g>
</g>
<g>
</g>
<g>
</g>
<g>
</g>
<g>
</g>
<g>
</g>
<g>
</g>
<g>
</g>
<g>
</g>
<g>
</g>
<g>
</g>
<g>
</g>
<g>
</g>
</svg>
