<svg xmlns="http://www.w3.org/2000/svg" viewBox="0 0 30.64 193.37"><defs><style>.cls-1{fill:#fbb040;}.cls-2{fill:#f9ed32;}</style></defs><title>Asset 1</title><g id="Layer_2" data-name="Layer 2"><g id="Layer_1-2" data-name="Layer 1"><g id="_Group_" data-name="&lt;Group&gt;"><g id="_Clip_Group_" data-name="&lt;Clip Group&gt;"><g id="_Group_2" data-name="&lt;Group&gt;"><g id="_Group_3" data-name="&lt;Group&gt;"><g id="_Group_4" data-name="&lt;Group&gt;"><g id="_Group_5" data-name="&lt;Group&gt;"><path id="_Path_" data-name="&lt;Path&gt;" class="cls-1" d="M27.51,103.14l-.63-.22L2.26,119.65c-3.18,2.16-3,8.64.35,10.36l.94.49L28.3,113.69C31.68,111.39,31.16,104.4,27.51,103.14Z"/><path id="_Path_2" data-name="&lt;Path&gt;" class="cls-2" d="M27.51,91.42,11.56,85.93,10,87.34c-2.95,2.69-2.18,9,1.23,10.2l15.64,5.39,1.42-1C31.68,99.67,31.16,92.67,27.51,91.42Z"/><path id="_Path_3" data-name="&lt;Path&gt;" class="cls-1" d="M22.49,65.46,21.67,65,10,75.61c-2.95,2.69-2.18,9,1.23,10.2l.33.11L23.12,75.39C25.83,72.92,25.46,67.2,22.49,65.46Z"/><path id="_Path_4" data-name="&lt;Path&gt;" class="cls-2" d="M22.49,53.73,11.65,47.38,10,50.18C8.23,53.09,9,57.55,11.5,59l10.18,6,1.45-1.32C25.83,61.19,25.46,55.47,22.49,53.73Z"/><path id="_Path_5" data-name="&lt;Path&gt;" class="cls-2" d="M28,143.22,3.56,130.5l-1.29.88c-3.18,2.16-3,8.64.35,10.36L27.16,154.5l1.36-1C31.57,151.2,31.27,144.91,28,143.22Z"/><path id="_Path_6" data-name="&lt;Path&gt;" class="cls-1" d="M20.87,24.86l-1.32-2.4L10,38.45c-1.74,2.91-1,7.37,1.52,8.83l.16.09,9.18-15.32A7.48,7.48,0,0,0,20.87,24.86Z"/><path id="_Path_7" data-name="&lt;Path&gt;" class="cls-1" d="M28,154.95l-.87-.45L12.34,165.57c-2.91,2.17-2.81,8.08.16,10.07l1.08.73,14.93-11.16C31.57,162.93,31.27,156.63,28,154.95Z"/><path id="_Path_8" data-name="&lt;Path&gt;" class="cls-2" d="M13.59,176.37l-1.25.93c-2.91,2.17-2.81,8.08.16,10.07l9,6,3.58-9.26Z"/><path id="_Path_9" data-name="&lt;Path&gt;" class="cls-2" d="M20.83,20.33a7.48,7.48,0,0,0,0-7.19L13.26,0,9.71,4.58l9.84,17.89Z"/></g></g></g></g></g></g></g></g></svg>