<svg xmlns="http://www.w3.org/2000/svg" viewBox="0 0 50.82 320.7"><defs><style>.cls-1{fill:#d7df23;}.cls-2{fill:#7c9e44;}</style></defs><title>Asset 5</title><g id="Layer_2" data-name="Layer 2"><g id="Layer_1-2" data-name="Layer 1"><g id="_Group_" data-name="&lt;Group&gt;"><g id="_Clip_Group_" data-name="&lt;Clip Group&gt;"><g id="_Group_2" data-name="&lt;Group&gt;"><g id="_Group_3" data-name="&lt;Group&gt;"><g id="_Group_4" data-name="&lt;Group&gt;"><polygon id="_Path_" data-name="&lt;Path&gt;" class="cls-1" points="50.62 162.08 50.62 178.27 45.27 173.26 44.58 170.71 50.62 162.08"/><polygon id="_Path_2" data-name="&lt;Path&gt;" class="cls-1" points="17.01 284.23 17.01 300.94 23.23 300.94 22.53 292.5 17.01 284.23"/><polygon id="_Path_3" data-name="&lt;Path&gt;" class="cls-1" points="50.69 248.19 50.69 262.41 43.83 262.41 45.05 256.24 50.69 248.19"/><polygon id="_Path_4" data-name="&lt;Path&gt;" class="cls-1" points="0 206.81 0 224.74 5.61 224.74 5.9 216.44 0 206.81"/><polygon id="_Path_5" data-name="&lt;Path&gt;" class="cls-1" points="13.58 135.09 13.58 153.06 19.33 150.03 19.18 142.51 13.58 135.09"/><polygon id="_Path_6" data-name="&lt;Path&gt;" class="cls-1" points="41.33 98.93 41.33 116.02 34.27 116.02 35.95 107.77 41.33 98.93"/><polygon id="_Path_7" data-name="&lt;Path&gt;" class="cls-1" points="14.98 71.5 14.98 88.09 18.99 86.52 19.33 78.58 14.98 71.5"/><polygon id="_Path_8" data-name="&lt;Path&gt;" class="cls-1" points="36.11 27.79 36.11 45.91 32.43 37.26 36.11 27.79"/><g id="_Group_5" data-name="&lt;Group&gt;"><path id="_Path_9" data-name="&lt;Path&gt;" class="cls-2" d="M45.63,171.06l-1-.36L3.75,198.45c-5.27,3.58-4.91,14.32.59,17.18l1.56.81,41-27.88C52.54,184.75,51.68,173.15,45.63,171.06Z"/><path id="_Path_10" data-name="&lt;Path&gt;" class="cls-1" d="M45.63,151.62l-26.45-9.11-2.57,2.35c-4.89,4.45-3.62,15,2,16.92l25.94,8.93,2.35-1.6C52.54,165.3,51.68,153.7,45.63,151.62Z"/><path id="_Path_11" data-name="&lt;Path&gt;" class="cls-2" d="M37.29,108.56l-1.35-.79L16.61,125.4c-4.89,4.45-3.62,15,2,16.92l.54.19L38.35,125C42.83,120.94,42.23,111.45,37.29,108.56Z"/><path id="_Path_12" data-name="&lt;Path&gt;" class="cls-1" d="M37.29,89.11l-18-10.54-2.78,4.65c-2.89,4.83-1.62,12.22,2.52,14.65l16.88,9.9,2.4-2.19C42.83,101.49,42.23,92,37.29,89.11Z"/><path id="_Path_13" data-name="&lt;Path&gt;" class="cls-1" d="M46.48,237.53,5.9,216.44,3.75,217.9c-5.27,3.58-4.91,14.32.59,17.18L45,256.23l2.25-1.68C52.36,250.77,51.87,240.33,46.48,237.53Z"/><path id="_Path_14" data-name="&lt;Path&gt;" class="cls-2" d="M34.62,41.24l-2.19-4L16.54,63.77C13.65,68.6,14.92,76,19.07,78.42l.26.15L34.55,53.17A12.4,12.4,0,0,0,34.62,41.24Z"/><path id="_Path_15" data-name="&lt;Path&gt;" class="cls-2" d="M46.48,257,45,256.23,20.47,274.6c-4.82,3.6-4.67,13.4.27,16.69l1.8,1.21L47.3,274C52.36,270.22,51.87,259.78,46.48,257Z"/><path id="_Path_16" data-name="&lt;Path&gt;" class="cls-1" d="M22.53,292.5,20.47,294c-4.82,3.6-4.67,13.4.27,16.69l14.91,10,5.94-15.36Z"/><path id="_Path_17" data-name="&lt;Path&gt;" class="cls-1" d="M34.55,33.72a12.4,12.4,0,0,0,.07-11.93L22,0,16.1,7.59,32.43,37.26Z"/></g></g></g></g></g></g></g></g></svg>