<?xml version="1.0" encoding="UTF-8"?><!DOCTYPE svg PUBLIC "-//W3C//DTD SVG 1.1//EN" "http://www.w3.org/Graphics/SVG/1.1/DTD/svg11.dtd"><svg xmlns="http://www.w3.org/2000/svg"><symbol id="circle" viewBox="0 0 490 490"><path d="M245 490c135.31 0 245-109.691 245-245S380.31 0 245 0 0 109.69 0 245s109.69 245 245 245zm0-357.164c61.946 0 112.164 50.217 112.164 112.164 0 61.946-50.218 112.164-112.164 112.164-61.947 0-112.164-50.218-112.164-112.164 0-61.947 50.217-112.164 112.164-112.164z"/></symbol><symbol id="polka" viewBox="0 0 525.153 525.153"><style>.path{fill:#b0afb7}</style><path class="path" d="M96.781 290.234c-15.229 0-27.658 12.407-27.658 27.658 0 15.12 12.407 27.658 27.658 27.658 15.12 0 27.658-12.516 27.658-27.658 0-15.251-12.538-27.658-27.658-27.658zm0 110.479c-15.229 0-27.658 12.516-27.658 27.658 0 15.229 12.407 27.658 27.658 27.658 15.12 0 27.658-12.407 27.658-27.658 0-15.12-12.538-27.658-27.658-27.658zm0-221.089c-15.229 0-27.658 12.516-27.658 27.658 0 15.229 12.407 27.658 27.658 27.658 15.12 0 27.658-12.407 27.658-27.658 0-15.142-12.538-27.658-27.658-27.658zm-82.952 13.829C6.105 193.453 0 199.558 0 207.282s6.105 13.829 13.829 13.829 13.829-6.105 13.829-13.829-6.127-13.829-13.829-13.829zm82.952-124.33c-15.229 0-27.658 12.407-27.658 27.658 0 15.12 12.407 27.658 27.658 27.658 15.12 0 27.658-12.516 27.658-27.658 0-15.229-12.538-27.658-27.658-27.658zm414.543 151.966c7.724 0 13.829-6.105 13.829-13.829s-6.105-13.829-13.829-13.829-13.829 6.105-13.829 13.829 6.126 13.829 13.829 13.829zm-193.454-96.65c15.12 0 27.658-12.516 27.658-27.658 0-15.229-12.516-27.658-27.658-27.658-15.229 0-27.658 12.407-27.658 27.658.022 15.12 12.429 27.658 27.658 27.658zm0-96.781c7.724 0 13.829-6.105 13.829-13.829S325.595 0 317.87 0c-7.724 0-13.829 6.105-13.829 13.829s6.127 13.829 13.829 13.829zM13.829 304.063C6.105 304.063 0 310.168 0 317.87s6.105 13.829 13.829 13.829 13.829-6.105 13.829-13.829-6.127-13.807-13.829-13.807zm193.453 193.432c-7.724 0-13.829 6.105-13.829 13.829s6.105 13.829 13.829 13.829 13.829-6.105 13.829-13.829c0-7.725-6.127-13.829-13.829-13.829zm0-469.837c7.724 0 13.829-6.105 13.829-13.829S214.984 0 207.282 0s-13.829 6.105-13.829 13.829 6.105 13.829 13.829 13.829zm0 96.781c15.229 0 27.658-12.516 27.658-27.658 0-15.229-12.407-27.658-27.658-27.658-15.12 0-27.658 12.407-27.658 27.658 0 15.12 12.516 27.658 27.658 27.658zm0 151.966c-22.975 0-41.487 18.512-41.487 41.487s18.512 41.487 41.487 41.487 41.487-18.512 41.487-41.487-18.533-41.487-41.487-41.487zm221.089 13.829c-15.12 0-27.658 12.407-27.658 27.658 0 15.12 12.516 27.658 27.658 27.658 15.229 0 27.658-12.516 27.658-27.658 0-15.251-12.428-27.658-27.658-27.658zm0 110.479c-15.12 0-27.658 12.516-27.658 27.658 0 15.229 12.516 27.658 27.658 27.658 15.229 0 27.658-12.407 27.658-27.658 0-15.12-12.428-27.658-27.658-27.658zm0-221.089c-15.12 0-27.658 12.516-27.658 27.658 0 15.229 12.516 27.658 27.658 27.658 15.229 0 27.658-12.407 27.658-27.658 0-15.142-12.428-27.658-27.658-27.658zm0-110.501c-15.12 0-27.658 12.407-27.658 27.658 0 15.12 12.516 27.658 27.658 27.658 15.229 0 27.658-12.516 27.658-27.658 0-15.229-12.428-27.658-27.658-27.658zm82.953 234.94c-7.724 0-13.829 6.105-13.829 13.829s6.105 13.829 13.829 13.829 13.829-6.127 13.829-13.851c0-7.724-6.105-13.807-13.829-13.807zm-193.454 96.65c-15.229 0-27.658 12.516-27.658 27.658 0 15.229 12.407 27.658 27.658 27.658 15.12 0 27.658-12.407 27.658-27.658.001-15.12-12.516-27.658-27.658-27.658zm0 96.782c-7.724 0-13.829 6.105-13.829 13.829s6.127 13.829 13.829 13.829 13.829-6.105 13.829-13.829c0-7.725-6.104-13.829-13.829-13.829zm-110.588-331.7c-22.975 0-41.487 18.512-41.487 41.487s18.512 41.487 41.487 41.487 41.487-18.512 41.487-41.487-18.533-41.487-41.487-41.487zm0 234.918c-15.12 0-27.658 12.516-27.658 27.658 0 15.229 12.516 27.658 27.658 27.658 15.229 0 27.658-12.407 27.658-27.658-.022-15.12-12.429-27.658-27.658-27.658zM317.87 276.405c-22.975 0-41.487 18.512-41.487 41.487s18.512 41.487 41.487 41.487 41.487-18.512 41.487-41.487-18.511-41.487-41.487-41.487zm0-110.61c-22.975 0-41.487 18.512-41.487 41.487s18.512 41.487 41.487 41.487 41.487-18.512 41.487-41.487-18.511-41.487-41.487-41.487z"/></symbol><symbol id="rocket" viewBox="0 0 396.821 396.821"><path d="M394.583 8.054a7.5 7.5 0 0 0-6.522-6.523c-30.748-3.803-62.477-.488-91.767 9.583-29.293 10.072-56.355 26.973-78.258 48.876l-49.983 49.983-72.149 9.305a7.504 7.504 0 0 0-4.345 2.135l-69.563 69.563a7.498 7.498 0 0 0-1.858 7.528 7.498 7.498 0 0 0 5.796 5.15l52.597 9.742 10.335 10.335-22.003 11.915a7.5 7.5 0 0 0-1.733 11.898l83.438 83.438a7.5 7.5 0 0 0 11.899-1.732l11.916-22.003 10.335 10.335 9.742 52.597a7.5 7.5 0 0 0 12.679 3.937l69.563-69.563a7.5 7.5 0 0 0 2.135-4.344l9.306-72.15 49.983-49.984c21.903-21.903 38.804-48.964 48.876-78.257 10.07-29.29 13.383-61.023 9.581-91.764zM79.674 198.355l-36.989-6.851 57.673-57.675 50.332-6.491-71.016 71.017zm72.391 114.913L82.846 244.05l17.085-9.252 61.385 61.386-9.251 17.084zm110.22-17.512l-57.674 57.674-6.852-36.988 71.017-71.017-6.491 50.331zm63.232-128.285l-135.85 135.85-96.874-96.874 135.85-135.851c19.738-19.739 44.002-35.076 70.287-44.49 3.395 17.492 11.948 33.719 24.654 46.424 12.705 12.706 28.931 21.259 46.424 24.655-9.415 26.283-24.753 50.547-44.491 70.286zm49.006-84.697a74.923 74.923 0 0 1-40.333-20.85 74.913 74.913 0 0 1-20.85-40.333c21.741-5.859 44.579-7.857 66.99-5.807 2.051 22.411.052 45.249-5.807 66.99z"/><path d="M221.325 110.443c-17.74 17.741-17.74 46.606 0 64.347 8.871 8.871 20.521 13.305 32.174 13.305 11.649 0 23.304-4.436 32.173-13.305h.001c17.74-17.74 17.74-46.606-.001-64.347-17.741-17.74-46.607-17.739-64.347 0zm53.741 53.74c-11.894 11.893-31.244 11.891-43.134 0-11.893-11.892-11.893-31.242 0-43.134 5.945-5.946 13.756-8.918 21.566-8.918 7.811 0 15.621 2.973 21.566 8.918 11.893 11.892 11.893 31.242.002 43.134zM98.365 299.165a7.5 7.5 0 0 0-10.607 0L23.41 363.512a7.5 7.5 0 0 0 5.304 12.803 7.478 7.478 0 0 0 5.304-2.197l64.347-64.347a7.501 7.501 0 0 0 0-10.606zM108.263 319.671l-28.991 28.991a7.5 7.5 0 0 0 5.304 12.803 7.478 7.478 0 0 0 5.304-2.197l28.991-28.991a7.5 7.5 0 0 0 0-10.606 7.502 7.502 0 0 0-10.608 0zM69.123 361.919c-3.138 0-6.002 2.024-7.062 4.973-1.078 2.998-.075 6.441 2.416 8.416 2.547 2.02 6.266 2.13 8.928.265 2.84-1.99 3.992-5.81 2.639-9.024-1.113-2.775-3.945-4.63-6.921-4.63z"/><path d="M76.044 366.549c.19.451-.18-.45 0 0zM47.91 380.025l-3.992 3.992a7.5 7.5 0 0 0 5.303 12.804 7.477 7.477 0 0 0 5.303-2.196l3.992-3.992a7.498 7.498 0 0 0 .001-10.606c-2.929-2.928-7.679-2.931-10.607-.002zM42.502 314.014a7.5 7.5 0 0 0-10.607 0L2.904 343.005a7.5 7.5 0 0 0 5.304 12.803 7.478 7.478 0 0 0 5.304-2.197l28.991-28.991a7.5 7.5 0 0 0-.001-10.606zM54.472 311.136c3.043-.765 5.327-3.417 5.644-6.537.311-3.055-1.369-6.049-4.096-7.427-2.895-1.464-6.523-.853-8.769 1.494-2.405 2.513-2.752 6.426-.852 9.335-.06-.09-.106-.156.015.029.126.185.083.118.023.029 1.767 2.567 4.992 3.842 8.035 3.077zM73.867 293.257l3.991-3.992a7.498 7.498 0 0 0-.001-10.606c-2.932-2.93-7.681-2.929-10.606.001l-3.991 3.992a7.498 7.498 0 0 0 5.304 12.802 7.474 7.474 0 0 0 5.303-2.197z"/></symbol><symbol id="search" viewBox="0 0 451 451"><path d="M447.05 428l-109.6-109.6c29.4-33.8 47.2-77.9 47.2-126.1C384.65 86.2 298.35 0 192.35 0 86.25 0 .05 86.3.05 192.3s86.3 192.3 192.3 192.3c48.2 0 92.3-17.8 126.1-47.2L428.05 447c2.6 2.6 6.1 4 9.5 4s6.9-1.3 9.5-4c5.2-5.2 5.2-13.8 0-19zM26.95 192.3c0-91.2 74.2-165.3 165.3-165.3 91.2 0 165.3 74.2 165.3 165.3s-74.1 165.4-165.3 165.4c-91.1 0-165.3-74.2-165.3-165.4z"/></symbol><symbol id="triangle" viewBox="0 0 612.191 612.191"><path d="M.096 0v612.191l612-306.096L.096 0zm38.252 57.044l496.631 249.357L38.348 554.555V57.044z"/></symbol><symbol id="U+25CC"><circle cx="90" cy="90" r="67" fill="none" stroke="#000" stroke-width="6" stroke-dasharray="0,14" stroke-linecap="round"/></symbol><symbol id="vector" viewBox="0 0 60 60"><path d="M40.209 16.5h11.933c.447 1.72 2 3 3.858 3 2.206 0 4-1.794 4-4s-1.794-4-4-4c-1.858 0-3.411 1.28-3.858 3H34v-3h-8v3H7.858c-.447-1.72-2-3-3.858-3-2.206 0-4 1.794-4 4s1.794 4 4 4c1.858 0 3.411-1.28 3.858-3h11.933c-9.638 3.925-16.373 13.213-16.767 24H0v8h8v-8H5.045C5.517 28.615 14.28 18.703 26 16.824V19.5h8v-2.676c11.72 1.879 20.483 11.79 20.955 23.676H52v8h8v-8h-3.023c-.395-10.787-7.13-20.075-16.768-24zM6 46.5H2v-4h4v4zm50-33c1.103 0 2 .897 2 2s-.897 2-2 2-2-.897-2-2 .897-2 2-2zm-52 4c-1.103 0-2-.897-2-2s.897-2 2-2 2 .897 2 2-.897 2-2 2zm28 0h-4v-4h4v4zm26 29h-4v-4h4v4z"/></symbol><symbol id="write" viewBox="0 0 240.162 240.162"><path d="M39.818 72.494h97.652a7 7 0 1 0 0-14H39.818a7 7 0 1 0 0 14zM39.818 96.543h97.652a7 7 0 1 0 0-14H39.818a7 7 0 1 0 0 14zM91.477 178.738H39.818a7 7 0 1 0 0 14h51.658a7 7 0 0 0 .001-14z"/><path d="M236.763 20.911l-20.58-12.348a6.997 6.997 0 0 0-9.604 2.4L170.75 70.677v-42.32a7 7 0 0 0-7-7H7a7 7 0 0 0-7 7v197.24a7 7 0 0 0 7 7h156.75a7 7 0 0 0 7-7v-81.062l68.414-114.02a7 7 0 0 0-2.401-9.604zm-90.402 137.061l-11.617 9.643 3.042-14.788L204.938 40.91l8.575 5.145-67.152 111.917zM220.716 34.05l-8.575-5.145 2.842-4.736 8.575 5.145-2.842 4.736zM14 218.597V35.357h142.75V94.01l-12.363 20.604c.049-.335.083-.674.083-1.022a7 7 0 0 0-7-7H39.818a7 7 0 1 0 0 14h97.652a6.958 6.958 0 0 0 4.156-1.377l-6.856 11.426H39.818a7 7 0 1 0 0 14h86.552l-1.204 2.006a7.005 7.005 0 0 0-.854 2.191l-1.203 5.851H39.818a7 7 0 1 0 0 14h80.411l-3.217 15.639a7 7 0 0 0 11.328 6.797l27.88-23.142c.191-.159.357-.344.53-.521v51.135H14z"/></symbol></svg>