<svg xmlns="http://www.w3.org/2000/svg" viewBox="0 0 50.82 320.7"><defs><style>.cls-1{fill:#d7df23}.cls-2{fill:#7c9e44}</style></defs><title>Asset 5</title><g id="Layer_2" data-name="Layer 2"><g id="Layer_1-2" data-name="Layer 1"><g id="_Group_" data-name="&lt;Group&gt;"><g id="_Clip_Group_" data-name="&lt;Clip Group&gt;"><g id="_Group_2" data-name="&lt;Group&gt;"><g id="_Group_3" data-name="&lt;Group&gt;"><g id="_Group_4" data-name="&lt;Group&gt;"><path id="_Path_" data-name="&lt;Path&gt;" class="cls-1" d="M50.62 162.08v16.19l-5.35-5.01-.69-2.55 6.04-8.63z"/><path id="_Path_2" data-name="&lt;Path&gt;" class="cls-1" d="M17.01 284.23v16.71h6.22l-.7-8.44-5.52-8.27z"/><path id="_Path_3" data-name="&lt;Path&gt;" class="cls-1" d="M50.69 248.19v14.22h-6.86l1.22-6.17 5.64-8.05z"/><path id="_Path_4" data-name="&lt;Path&gt;" class="cls-1" d="M0 206.81v17.93h5.61l.29-8.3-5.9-9.63z"/><path id="_Path_5" data-name="&lt;Path&gt;" class="cls-1" d="M13.58 135.09v17.97l5.75-3.03-.15-7.52-5.6-7.42z"/><path id="_Path_6" data-name="&lt;Path&gt;" class="cls-1" d="M41.33 98.93v17.09h-7.06l1.68-8.25 5.38-8.84z"/><path id="_Path_7" data-name="&lt;Path&gt;" class="cls-1" d="M14.98 71.5v16.59l4.01-1.57.34-7.94-4.35-7.08z"/><path id="_Path_8" data-name="&lt;Path&gt;" class="cls-1" d="M36.11 27.79v18.12l-3.68-8.65 3.68-9.47z"/><g id="_Group_5" data-name="&lt;Group&gt;"><path id="_Path_9" data-name="&lt;Path&gt;" class="cls-2" d="M45.63 171.06l-1-.36-40.88 27.75c-5.27 3.58-4.91 14.32.59 17.18l1.56.81 41-27.88c5.64-3.81 4.78-15.41-1.27-17.5z"/><path id="_Path_10" data-name="&lt;Path&gt;" class="cls-1" d="M45.63 151.62l-26.45-9.11-2.57 2.35c-4.89 4.45-3.62 15 2 16.92l25.94 8.93 2.35-1.6c5.64-3.81 4.78-15.41-1.27-17.49z"/><path id="_Path_11" data-name="&lt;Path&gt;" class="cls-2" d="M37.29 108.56l-1.35-.79-19.33 17.63c-4.89 4.45-3.62 15 2 16.92l.54.19L38.35 125c4.48-4.06 3.88-13.55-1.06-16.44z"/><path id="_Path_12" data-name="&lt;Path&gt;" class="cls-1" d="M37.29 89.11l-18-10.54-2.78 4.65c-2.89 4.83-1.62 12.22 2.52 14.65l16.88 9.9 2.4-2.19c4.52-4.09 3.92-13.58-1.02-16.47z"/><path id="_Path_13" data-name="&lt;Path&gt;" class="cls-1" d="M46.48 237.53L5.9 216.44l-2.15 1.46c-5.27 3.58-4.91 14.32.59 17.18L45 256.23l2.25-1.68c5.11-3.78 4.62-14.22-.77-17.02z"/><path id="_Path_14" data-name="&lt;Path&gt;" class="cls-2" d="M34.62 41.24l-2.19-4-15.89 26.53C13.65 68.6 14.92 76 19.07 78.42l.26.15 15.22-25.4a12.4 12.4 0 0 0 .07-11.93z"/><path id="_Path_15" data-name="&lt;Path&gt;" class="cls-2" d="M46.48 257l-1.48-.77-24.53 18.37c-4.82 3.6-4.67 13.4.27 16.69l1.8 1.21L47.3 274c5.06-3.78 4.57-14.22-.82-17z"/><path id="_Path_16" data-name="&lt;Path&gt;" class="cls-1" d="M22.53 292.5l-2.06 1.5c-4.82 3.6-4.67 13.4.27 16.69l14.91 10 5.94-15.36z"/><path id="_Path_17" data-name="&lt;Path&gt;" class="cls-1" d="M34.55 33.72a12.4 12.4 0 0 0 .07-11.93L22 0l-5.9 7.59 16.33 29.67z"/></g></g></g></g></g></g></g></g></svg>