<svg xmlns="http://www.w3.org/2000/svg" viewBox="0 0 217.25 335.77"><defs><style>.cls-1{fill:#57c3bc}.cls-2{fill:#fff}.cls-3{fill:#f7941d}.cls-4{fill:#fdf59c}</style></defs><title>Asset 4</title><g id="Layer_2" data-name="Layer 2"><g id="Layer_1-2" data-name="Layer 1"><g id="_Group_" data-name="&lt;Group&gt;"><g id="_Clip_Group_" data-name="&lt;Clip Group&gt;"><g id="_Group_2" data-name="&lt;Group&gt;"><g id="_Group_3" data-name="&lt;Group&gt;"><g id="_Group_4" data-name="&lt;Group&gt;"><path id="_Path_" data-name="&lt;Path&gt;" class="cls-1" d="M211 251.4L20.6 21.19c-2.18-2.63-4.43-5.33-7.44-6.95C.22 7.27-.79 23.69.35 32l41.88 303.77 175-76.8z"/><path id="_Path_2" data-name="&lt;Path&gt;" class="cls-2" d="M4.63 13.45L5 13.2a10.68 10.68 0 0 1 1-.7 15.42 15.42 0 0 1 4.37-1.87 19.84 19.84 0 0 1 7.55-.41 25.25 25.25 0 0 1 4.58 1.08 25.32 25.32 0 0 1 4.8 2.23 37.34 37.34 0 0 1 8.94 7.68 78.44 78.44 0 0 1 7.33 10.27l3.31 5.4c1.11 1.78 2.23 3.53 3.38 5.2a49.5 49.5 0 0 0 3.66 4.69L55 48l1 1c.68.67 1.44 1.39 2.21 2.06a114.9 114.9 0 0 0 10 7.76c1.76 1.24 3.54 2.5 5.3 3.78s3.52 2.57 5.21 3.93l1.26 1 .67.55.59.5 1.16 1 1.2 1.12c.8.73 1.55 1.46 2.27 2.18s1.43 1.45 2.13 2.19a81.33 81.33 0 0 1 7 8.71 80.16 80.16 0 0 1 4.92 8A72 72 0 0 1 103 98.3c.76 1.84 1.25 3.32 1.58 4.33l.48 1.55-1-1.29c-.62-.85-1.6-2.06-2.81-3.58a131.47 131.47 0 0 0-10.65-11.8c-2.32-2.28-4.93-4.64-7.79-7-1.43-1.15-2.93-2.37-4.45-3.45L76 75.37l-.63-.45-.57-.38-1.24-.83c-1.7-1.09-3.42-2.22-5.23-3.35s-3.65-2.28-5.52-3.51a93.3 93.3 0 0 1-11.18-8.31 62.15 62.15 0 0 1-2.65-2.53l-1.33-1.39-1.15-1.29a48.47 48.47 0 0 1-4.31-5.89c-1.27-2-2.38-4-3.41-5.93s-2-3.86-2.92-5.7a103 103 0 0 0-5.58-10.06A37 37 0 0 0 24 18.26a23 23 0 0 0-7-4.31 19.85 19.85 0 0 0-6.41-1.34A16.59 16.59 0 0 0 6.2 13c-1.02.27-1.57.45-1.57.45z"/><path id="_Path_3" data-name="&lt;Path&gt;" class="cls-3" d="M4 13.6l.68-1.28a22.55 22.55 0 0 1 2.43-3.4 25 25 0 0 1 5-4.39 26.73 26.73 0 0 1 8-3.65 28.45 28.45 0 0 1 5.11-.83h1.35a12.29 12.29 0 0 1 1.31 0c1 .05 2 .11 2.94.26a35.48 35.48 0 0 1 11.35 3.62 51.34 51.34 0 0 1 10.26 7c.78.69 1.57 1.38 2.32 2.11.39.37.74.69 1.16 1.11l1 1.05c1.45 1.52 2.83 3 4.17 4.55 2.63 3.07 5.13 6.12 7.54 9Q70.48 31 72.27 33c1.21 1.35 2.43 2.63 3.64 3.86L76 37l.06.06.25.24.5.48 1 .94 1.84 1.65c1.27 1.11 2.56 2.15 3.84 3.16 2.57 2 5.12 3.82 7.52 5.46s4.68 3.11 6.69 4.43l5.3 3.44c1.46 1 2.59 1.76 3.37 2.28l1.18.84-1.42-.31c-.91-.22-2.27-.52-4-1a114.3 114.3 0 0 1-13.83-4.56 83.72 83.72 0 0 1-8.94-4.29C77.8 49 76.25 48 74.67 46.95c-.8-.52-1.6-1.12-2.41-1.7l-1.09-.84-.56-.41-.27-.21-.34-.29a81.86 81.86 0 0 1-8.65-8.29c-2.72-2.93-5.24-6-7.79-8.89-1.26-1.47-2.56-2.9-3.76-4.24l-1.94-2c-.63-.67-1.28-1.29-1.93-1.92q-2-1.85-4-3.51a65.267 65.267 0 0 0-4.13-3 33.38 33.38 0 0 0-8.5-4c-.73-.24-1.37-.38-2-.54a8.87 8.87 0 0 0-1.14-.2l-.6-.09h-.45A25.6 25.6 0 0 0 21 6.58 26.68 26.68 0 0 0 13.77 8a28.75 28.75 0 0 0-5.41 2.48c-.74.42-1.35.86-1.92 1.22s-1 .72-1.36 1z"/><g id="_Group_5" data-name="&lt;Group&gt;"><path id="_Path_4" data-name="&lt;Path&gt;" class="cls-4" d="M104.36 122.47l-91.3 1.63 1.38 10 98.08-1.75z"/><path id="_Path_5" data-name="&lt;Path&gt;" class="cls-2" d="M145.86 172.66L20.05 174.9l1.38 10L154 182.52z"/><path id="_Path_6" data-name="&lt;Path&gt;" class="cls-4" d="M187.37 222.84L27.06 225.7l1.38 10 167.09-3z"/></g></g></g></g></g></g></g></g></svg>