<svg xmlns="http://www.w3.org/2000/svg" viewBox="0 0 30.64 193.37"><defs><style>.cls-1{fill:#fbb040}.cls-2{fill:#f9ed32}</style></defs><title>Asset 1</title><g id="Layer_2" data-name="Layer 2"><g id="Layer_1-2" data-name="Layer 1"><g id="_Group_" data-name="&lt;Group&gt;"><g id="_Clip_Group_" data-name="&lt;Clip Group&gt;"><g id="_Group_2" data-name="&lt;Group&gt;"><g id="_Group_3" data-name="&lt;Group&gt;"><g id="_Group_4" data-name="&lt;Group&gt;"><g id="_Group_5" data-name="&lt;Group&gt;"><path id="_Path_" data-name="&lt;Path&gt;" class="cls-1" d="M27.51 103.14l-.63-.22-24.62 16.73c-3.18 2.16-3 8.64.35 10.36l.94.49 24.75-16.81c3.38-2.3 2.86-9.29-.79-10.55z"/><path id="_Path_2" data-name="&lt;Path&gt;" class="cls-2" d="M27.51 91.42l-15.95-5.49L10 87.34c-2.95 2.69-2.18 9 1.23 10.2l15.64 5.39 1.42-1c3.39-2.26 2.87-9.26-.78-10.51z"/><path id="_Path_3" data-name="&lt;Path&gt;" class="cls-1" d="M22.49 65.46l-.82-.46L10 75.61c-2.95 2.69-2.18 9 1.23 10.2l.33.11 11.56-10.53c2.71-2.47 2.34-8.19-.63-9.93z"/><path id="_Path_4" data-name="&lt;Path&gt;" class="cls-2" d="M22.49 53.73l-10.84-6.35-1.65 2.8c-1.77 2.91-1 7.37 1.5 8.82l10.18 6 1.45-1.32c2.7-2.49 2.33-8.21-.64-9.95z"/><path id="_Path_5" data-name="&lt;Path&gt;" class="cls-2" d="M28 143.22L3.56 130.5l-1.29.88c-3.18 2.16-3 8.64.35 10.36l24.54 12.76 1.36-1c3.05-2.3 2.75-8.59-.52-10.28z"/><path id="_Path_6" data-name="&lt;Path&gt;" class="cls-1" d="M20.87 24.86l-1.32-2.4L10 38.45c-1.74 2.91-1 7.37 1.52 8.83l.16.09 9.18-15.32a7.48 7.48 0 0 0 .01-7.19z"/><path id="_Path_7" data-name="&lt;Path&gt;" class="cls-1" d="M28 154.95l-.87-.45-14.79 11.07c-2.91 2.17-2.81 8.08.16 10.07l1.08.73 14.93-11.16c3.06-2.28 2.76-8.58-.51-10.26z"/><path id="_Path_8" data-name="&lt;Path&gt;" class="cls-2" d="M13.59 176.37l-1.25.93c-2.91 2.17-2.81 8.08.16 10.07l9 6 3.58-9.26z"/><path id="_Path_9" data-name="&lt;Path&gt;" class="cls-2" d="M20.83 20.33a7.48 7.48 0 0 0 0-7.19L13.26 0 9.71 4.58l9.84 17.89z"/></g></g></g></g></g></g></g></g></svg>